<svg width="182" height="44" xmlns="http://www.w3.org/2000/svg" fill="none">

 <g>
  <title>Layer 1</title>
  <path id="svg_8" fill="#29A361" d="m14.642,1.84962l-4.5749,8.73648c-0.29542,0.564 -0.10089,1.2693 0.4375,1.5864l7.1635,4.2197c0.5459,0.3215 1.2398,0.1238 1.5502,-0.4418l8.7562,-15.94976l-10.3344,0c-1.2509,0 -2.4015,0.70953 -2.9981,1.84898z"/>
  <path id="svg_9" fill="#248F55" d="m27.974,0l-8.7558,15.95c-0.311,0.5654 -1.0045,0.7636 -1.5501,0.4423l-1.8698,-1.101c0.4559,0.0761 0.9301,-0.141 1.1715,-0.5814l8.077,-14.7099l2.9272,0z"/>
  <path id="svg_10" fill="#34CB79" d="m37.5549,8.45922l-3.1554,-6.51021c-0.5789,-1.19444 -1.7585,-1.94837 -3.0482,-1.94837l-9.1233,0l7.0048,12.31596c-0.0229,0.0107 -0.046,0.0214 -0.069,0.0321c-0.4406,0.2055 -0.4226,0.8606 0.0285,1.0401l6.0487,2.4072c0.2803,0.1116 0.5948,-0.0335 0.7024,-0.3239l2.3317,-6.29257c0.1724,-0.46547 -0.2803,-0.91462 -0.7202,-0.72031z"/>
  <path id="svg_11" fill="#2FB86E" d="m38.2751,9.17899l-2.3324,6.29251c-0.1071,0.2912 -0.4221,0.4364 -0.7021,0.3243l-1.8302,-0.7287l2.1818,-5.88811c0.124,-0.33393 -0.0741,-0.65911 -0.3583,-0.74441c-0.2707,-0.08132 -0.5018,-0.26504 -0.6283,-0.526l-2.8891,-5.95983c-0.5786,-1.19404 -1.7578,-1.94875 -3.048,-1.94875l2.6829,0c1.2893,0 2.4685,0.75471 3.048,1.94875l3.1552,6.5107c0.4405,-0.19421 0.8925,0.25416 0.7205,0.71954z"/>
  <path id="svg_12" fill="#29A361" d="m31.4594,33.5593c-0.085,-0.3615 -0.535,-0.5163 -0.8096,-0.2318l-4.7276,4.8993c-0.1886,0.1955 -0.1886,0.5123 0,0.7077l4.7458,4.9181c0.2728,0.2827 0.7182,0.1318 0.8078,-0.2235l6.979,0c1.2849,0 2.4608,-0.7482 3.0421,-1.9357l3.9822,-8.1342l-14.0197,0l0,0.0001z"/>
  <path id="svg_13" fill="#248F55" d="m37.3508,33.5594l2.2629,3.5485c0.5116,0.8022 0.5682,1.8274 0.1483,2.6849l-0.9307,1.9007c-0.5804,1.1871 -1.7568,1.9358 -3.0413,1.9358l2.6647,0c1.2845,0 2.4608,-0.7487 3.0423,-1.9358l3.9819,-8.134l-8.1281,0l0,-0.0001z"/>
  <path id="svg_14" fill="#29A361" d="m21.9354,42.6939l0,-8.6583c0,-0.6507 -0.5091,-1.1784 -1.1371,-1.1784l-18.73043,0l4.82025,9.1709c0.59747,1.1368 1.74657,1.8442 2.9956,1.8442l10.91458,0c0.6279,0 1.1371,-0.5275 1.1371,-1.1784z"/>
  <path id="svg_15" fill="#248F55" d="m10.0115,32.858l-4.15969,7.1993l-3.78394,-7.1993l7.94363,0z"/>
  <path id="svg_16" fill="#248F55" d="m21.935,34.0358l0,8.6586c0,0.6506 -0.509,1.178 -1.1367,1.178l-2.9834,0c0.6278,0 1.1368,-0.5274 1.1368,-1.178l0,-8.6586c0,-0.6506 -0.509,-1.178 -1.1368,-1.178l2.9834,0c0.6277,-0.0001 1.1367,0.5274 1.1367,1.178z"/>
  <path id="svg_17" fill="#34CB79" d="m12.7847,25.2066l-0.8411,-6.5599c-0.0416,-0.3241 -0.3288,-0.5518 -0.6415,-0.5088l-6.35426,0.875c-0.4785,0.0659 -0.65682,0.6691 -0.32907,1.0047l-4.01025,5.9901c-0.73528,1.0983 -0.8099,2.5323 -0.19293,3.7061l4.36396,8.3029l7.08585,-12.266c0.0025,0.0019 0.0049,0.0039 0.0075,0.0059c0.4044,0.3181 0.9786,-0.0284 0.9118,-0.55z"/>
  <path id="svg_18" fill="#2FB86E" d="m11.8725,25.7566c-0.002,-0.0021 -0.0048,-0.004 -0.0068,-0.006l-7.08609,12.2657l-1.45734,-2.7725l5.7675,-9.9852l0.15993,-0.277c0.08747,-0.1514 0.25838,-0.2168 0.42553,-0.1832c0.00085,0.0002 0.00169,0.0003 0.00254,0.0005c0.35563,0.0657 0.72033,-0.2413 0.66573,-0.6627l-0.73886,-5.765l1.69686,-0.2332c0.313,-0.043 0.6008,0.1852 0.6423,0.5084l0.8412,6.5608c0.0668,0.5213 -0.5079,0.8676 -0.9125,0.5494z"/>
  <path id="svg_19" fill="#34CB79" d="m47.3959,25.5569l-5.4856,-8.2372c-0.3364,-0.5053 -0.991,-0.6582 -1.5041,-0.3513l-7.1488,4.2751c-0.5674,0.3393 -0.7415,1.104 -0.3803,1.6704l10.0778,15.8012l4.6757,-9.5508c0.5659,-1.156 0.4759,-2.5404 -0.2347,-3.6074z"/>
  <path id="svg_20" fill="#2FB86E" d="m47.6305,29.1645l-4.6764,9.5503l-1.5684,-2.4602l3.4711,-7.0902c0.5659,-1.156 0.4761,-2.5402 -0.2347,-3.6072l-5.2915,-7.9449l1.0758,-0.6436c0.5129,-0.3073 1.1677,-0.1542 1.5038,0.3513l5.4857,8.2373c0.7107,1.067 0.8005,2.4512 0.2346,3.6072z"/>
  <text font-weight="bold" transform="matrix(0.993757 0 0 0.865812 8.4718 4.94111)" stroke="null" xml:space="preserve" text-anchor="start" font-family="'Ubuntu'" font-size="26" id="svg_23" y="29.98078" x="51.77212" fill="#322153">Ecopoint</text>
 </g>
</svg>